<mxfile host="app.diagrams.net" modified="2023-12-09T03:28:26.454Z" agent="Mozilla/5.0 (Windows NT 10.0; Win64; x64) AppleWebKit/537.36 (KHTML, like Gecko) Chrome/120.0.0.0 Safari/537.36" etag="-YfN3TCreqS8Apo8ayrX" version="22.1.7" type="google">
  <diagram name="ページ1" id="BPGSsqjCwLqJb4cJauAi">
    <mxGraphModel grid="1" page="1" gridSize="10" guides="1" tooltips="1" connect="1" arrows="1" fold="1" pageScale="1" pageWidth="827" pageHeight="1169" math="0" shadow="0">
      <root>
        <mxCell id="0" />
        <mxCell id="1" parent="0" />
        <mxCell id="CFnojVdGH5ikYhW3CH3F-1" style="edgeStyle=orthogonalEdgeStyle;rounded=0;orthogonalLoop=1;jettySize=auto;html=1;exitX=0.5;exitY=1;exitDx=0;exitDy=0;entryX=0.5;entryY=0;entryDx=0;entryDy=0;" edge="1" parent="1" source="CFnojVdGH5ikYhW3CH3F-6" target="CFnojVdGH5ikYhW3CH3F-5">
          <mxGeometry relative="1" as="geometry">
            <mxPoint x="405" y="240" as="targetPoint" />
            <mxPoint x="405" y="160" as="sourcePoint" />
          </mxGeometry>
        </mxCell>
        <mxCell id="CFnojVdGH5ikYhW3CH3F-3" style="edgeStyle=orthogonalEdgeStyle;rounded=0;orthogonalLoop=1;jettySize=auto;html=1;exitX=0.5;exitY=1;exitDx=0;exitDy=0;entryX=0.5;entryY=0;entryDx=0;entryDy=0;" edge="1" parent="1" source="CFnojVdGH5ikYhW3CH3F-5" target="CFnojVdGH5ikYhW3CH3F-7">
          <mxGeometry relative="1" as="geometry">
            <mxPoint x="405" y="360" as="targetPoint" />
          </mxGeometry>
        </mxCell>
        <mxCell id="CFnojVdGH5ikYhW3CH3F-5" value="&lt;font style=&quot;font-size: 15px;&quot;&gt;データベースに登録&lt;/font&gt;" style="rounded=1;whiteSpace=wrap;html=1;arcSize=50;" vertex="1" parent="1">
          <mxGeometry x="330" y="240" width="150" height="40" as="geometry" />
        </mxCell>
        <mxCell id="CFnojVdGH5ikYhW3CH3F-6" value="&lt;font style=&quot;font-size: 15px;&quot;&gt;呼び出し&lt;/font&gt;" style="rounded=1;whiteSpace=wrap;html=1;arcSize=50;" vertex="1" parent="1">
          <mxGeometry x="355" y="120" width="100" height="40" as="geometry" />
        </mxCell>
        <mxCell id="CFnojVdGH5ikYhW3CH3F-7" value="&lt;span style=&quot;font-size: 15px;&quot;&gt;終了&lt;/span&gt;" style="rounded=1;whiteSpace=wrap;html=1;arcSize=50;" vertex="1" parent="1">
          <mxGeometry x="355" y="360" width="100" height="40" as="geometry" />
        </mxCell>
      </root>
    </mxGraphModel>
  </diagram>
</mxfile>
